<svg height='300px' width='300px'  fill="#000000" xmlns="http://www.w3.org/2000/svg" data-name="Layer 1" viewBox="0 0 100 100" x="0px" y="0px"><title>User</title><path d="M90.94,78.46v-.84a10,10,0,0,0-6.69-7.45c-2.2-.82-4.52-1.26-6.76-2C73.82,67,70,66.09,66.56,64.46,61.34,62,60.21,58.2,62.61,53c.47-1,1-2,1.47-3.07,4-9.09,7.12-18.31,6.2-28.52-.91-10-7.92-19.4-21.15-18.87-9.29.37-16.41,5.62-18.77,14.65-2.16,8.23-.78,16.27,2,24.1,1.43,4.06,3.35,7.95,5.08,11.9,2.24,5.1,1.14,8.6-3.77,11.21a34.73,34.73,0,0,1-6.11,2.43c-3.41,1-6.9,1.78-10.31,2.79-3.81,1.14-7.18,3.17-7.93,7.34-.1.56-.18,1.13-.26,1.69,0,2.41,0,6.61,0,11.09C13.19,94.17,29.94,97.5,50,97.5s37-3.37,41-7.87C90.94,85.91,90.94,82.18,90.94,78.46Z"></path></svg>