<svg height='300px' width='300px'  fill="#000000" xmlns="http://www.w3.org/2000/svg" xmlns:xlink="http://www.w3.org/1999/xlink" version="1.1" x="0px" y="0px" viewBox="0 0 32 32" enable-background="new 0 0 32 32" xml:space="preserve"><path d="M8.215,2.997H5.856c-1.558,0-2.819,1.263-2.819,2.819v20.367c0,1.557,1.262,2.819,2.819,2.819h2.358  c1.557,0,2.82-1.263,2.82-2.819V5.816C11.035,4.26,9.771,2.997,8.215,2.997z"></path><path d="M27.554,5.058H11.898c0.05,0.245,0.076,0.499,0.076,0.759v20.367c0,0.26-0.026,0.514-0.076,0.759h15.655  c0.776,0,1.41-0.634,1.41-1.41V6.468C28.964,5.692,28.33,5.058,27.554,5.058z M14.242,7.971h11.516v4.348H14.242V7.971z   M15.638,24.304h-1.114c-0.584,0-1.058-0.474-1.058-1.059c0-0.584,0.474-1.058,1.058-1.058h1.114c0.583,0,1.058,0.474,1.058,1.058  C16.695,23.83,16.221,24.304,15.638,24.304z M15.638,20.573h-1.114c-0.584,0-1.058-0.474-1.058-1.058  c0-0.585,0.474-1.059,1.058-1.059h1.114c0.583,0,1.058,0.474,1.058,1.059C16.695,20.1,16.221,20.573,15.638,20.573z M15.638,16.843  h-1.114c-0.584,0-1.058-0.474-1.058-1.058s0.474-1.059,1.058-1.059h1.114c0.583,0,1.058,0.475,1.058,1.059  S16.221,16.843,15.638,16.843z M20.557,24.304h-1.115c-0.584,0-1.057-0.474-1.057-1.059c0-0.584,0.473-1.058,1.057-1.058h1.115  c0.583,0,1.058,0.474,1.058,1.058C21.614,23.83,21.14,24.304,20.557,24.304z M20.557,20.573h-1.115  c-0.584,0-1.057-0.474-1.057-1.058c0-0.585,0.473-1.059,1.057-1.059h1.115c0.583,0,1.058,0.474,1.058,1.059  C21.614,20.1,21.14,20.573,20.557,20.573z M20.557,16.843h-1.115c-0.584,0-1.057-0.474-1.057-1.058s0.473-1.059,1.057-1.059h1.115  c0.583,0,1.058,0.475,1.058,1.059S21.14,16.843,20.557,16.843z M25.475,24.304h-1.113c-0.584,0-1.058-0.474-1.058-1.059  c0-0.584,0.474-1.058,1.058-1.058h1.113c0.586,0,1.059,0.474,1.059,1.058C26.533,23.83,26.061,24.304,25.475,24.304z M25.475,20.573  h-1.113c-0.584,0-1.058-0.474-1.058-1.058c0-0.585,0.474-1.059,1.058-1.059h1.113c0.586,0,1.059,0.474,1.059,1.059  C26.533,20.1,26.061,20.573,25.475,20.573z M25.475,16.843h-1.113c-0.584,0-1.058-0.474-1.058-1.058s0.474-1.059,1.058-1.059h1.113  c0.586,0,1.059,0.475,1.059,1.059S26.061,16.843,25.475,16.843z"></path></svg>