<?xml version="1.0" standalone="no"?>
<!DOCTYPE svg PUBLIC "-//W3C//DTD SVG 20010904//EN"
 "http://www.w3.org/TR/2001/REC-SVG-20010904/DTD/svg10.dtd">
<svg version="1.0" xmlns="http://www.w3.org/2000/svg"
 width="300.000000pt" height="60.000000pt" viewBox="0 0 300.000000 60.000000"
 preserveAspectRatio="xMidYMid meet">
<metadata>
Created by potrace 1.16, written by Peter Selinger 2001-2019
</metadata>
<g transform="translate(0.000000,60.000000) scale(0.100000,-0.100000)"
fill="#000000" stroke="none">
<path d="M805 503 c-8 -107 -2 -470 9 -480 16 -16 20 21 24 206 5 205 -4 371
-18 371 -4 0 -11 -44 -15 -97z"/>
<path d="M37 483 l-37 -4 2 -167 3 -167 70 -3 c39 -2 87 2 107 8 43 12 88 61
88 95 0 26 -19 75 -29 75 -3 0 -13 4 -21 10 -12 7 -12 12 4 28 25 28 18 80
-15 104 -26 20 -103 29 -172 21z"/>
<path d="M580 470 c-11 -11 -20 -24 -20 -29 0 -5 9 -11 20 -14 17 -4 20 -14
20 -65 0 -32 -5 -74 -11 -93 -13 -37 -35 -66 -44 -57 -4 4 -45 244 -45 264 0
2 -18 4 -40 4 -46 0 -45 4 -28 -117 11 -73 10 -87 -5 -119 -10 -19 -23 -34
-30 -31 -7 2 -19 55 -31 135 l-19 132 -44 0 -44 0 6 -32 c3 -18 16 -94 28
-168 23 -135 23 -135 51 -138 39 -5 84 16 100 46 l13 25 7 -36 c7 -36 8 -37
51 -37 83 0 137 76 152 212 6 64 0 100 -23 122 -21 21 -40 20 -64 -4z"/>
<path d="M1917 478 c-21 -11 -22 -25 -1 -45 24 -25 2 -143 -26 -143 -6 0 -10
9 -10 20 0 10 -5 53 -11 95 l-11 75 -35 0 c-31 0 -35 -2 -30 -22 15 -61 18
-127 8 -147 -15 -26 -31 -27 -31 -1 0 10 -5 53 -11 95 l-11 75 -34 0 c-19 0
-34 -1 -34 -2 0 -2 9 -55 20 -118 11 -63 20 -118 20 -122 0 -16 59 -7 84 13
l26 20 0 -20 c0 -17 6 -21 34 -21 48 0 83 32 101 92 31 107 7 187 -48 156z"/>
<path d="M980 354 l0 -126 76 4 c73 3 78 5 105 38 16 19 29 29 29 22 0 -7 11
-24 25 -37 40 -41 135 -32 135 12 0 10 -9 12 -34 8 -28 -6 -39 -2 -57 16 l-23
23 34 8 c72 14 96 12 128 -11 43 -30 41 -45 -4 -38 -32 5 -35 4 -32 -16 2 -18
10 -23 47 -25 54 -4 81 17 81 64 0 26 -6 36 -37 54 -27 16 -33 24 -23 30 7 4
20 6 28 3 14 -6 32 12 32 35 0 22 -76 15 -106 -11 l-27 -23 -24 24 c-43 43
-132 16 -147 -44 l-6 -24 -21 21 c-15 15 -18 24 -10 32 17 17 13 52 -7 70 -14
13 -38 17 -90 17 l-72 0 0 -126z"/>
<path d="M1520 440 c0 -11 -4 -20 -10 -20 -5 0 -10 -9 -10 -20 0 -11 5 -20 10
-20 6 0 10 -26 10 -59 0 -41 5 -65 16 -75 18 -19 75 -21 92 -4 21 21 14 37
-15 35 -27 -2 -28 0 -31 51 -3 50 -2 52 22 52 19 0 26 5 26 20 0 15 -7 20 -25
20 -18 0 -25 5 -25 20 0 16 -7 20 -30 20 -23 0 -30 -4 -30 -20z"/>
<path d="M2320 440 c0 -11 -4 -20 -10 -20 -5 0 -10 -9 -10 -20 0 -11 5 -20 10
-20 6 0 10 -26 10 -59 0 -41 5 -65 16 -75 20 -20 78 -21 94 -1 11 13 15 13 33
0 26 -18 98 -20 115 -3 24 24 14 39 -22 33 -28 -6 -39 -2 -57 16 l-24 24 30 6
c17 4 45 7 64 8 32 1 33 3 28 31 -4 17 -2 30 3 30 6 0 10 -35 10 -80 l0 -80
30 0 30 0 0 60 c0 56 2 61 28 73 15 6 30 16 34 22 4 5 8 -27 8 -72 l0 -83 30
0 c30 0 30 0 30 58 0 57 11 82 37 82 9 0 13 -17 13 -58 0 -63 11 -82 47 -82
25 0 45 31 25 38 -8 2 -12 28 -12 71 0 39 -5 72 -12 79 -16 16 -49 15 -75 -3
-12 -8 -23 -11 -25 -6 -2 4 -24 11 -50 15 -34 5 -50 3 -60 -7 -11 -12 -16 -12
-35 0 -20 14 -26 14 -46 0 -20 -13 -25 -13 -42 0 -25 18 -89 11 -116 -13 -17
-16 -19 -16 -19 -1 0 11 -8 17 -25 17 -18 0 -25 5 -25 20 0 16 -7 20 -30 20
-23 0 -30 -4 -30 -20z"/>
<path d="M2030 417 c-47 -24 -62 -84 -35 -137 19 -37 43 -50 92 -50 40 0 63
14 63 37 0 10 -9 12 -34 8 -28 -6 -39 -2 -57 16 l-23 23 34 8 c72 14 96 12
128 -11 43 -30 41 -45 -4 -38 -32 5 -35 4 -32 -16 2 -18 10 -23 47 -25 54 -4
81 17 81 64 0 26 -6 36 -37 54 -27 16 -33 24 -23 30 7 4 20 6 28 3 14 -6 32
12 32 35 0 15 -60 16 -94 1 -13 -6 -29 -21 -34 -33 -8 -17 -11 -17 -11 -4 -2
40 -71 60 -121 35z"/>
<path d="M2020 71 c0 -64 2 -71 20 -71 15 0 20 7 21 28 0 27 0 27 11 4 12 -24
60 -42 65 -25 3 8 12 8 32 0 30 -11 61 -5 61 13 0 5 -11 10 -25 10 -33 0 -32
16 1 24 19 5 25 12 22 29 -2 17 -11 23 -37 25 -38 4 -51 -9 -51 -50 0 -32 -15
-37 -29 -10 -7 13 -7 22 0 29 6 6 9 21 7 34 -3 21 -9 24 -50 27 l-48 3 0 -70z"/>
<path d="M1487 113 c-3 -10 -2 -38 1 -63 6 -37 11 -46 30 -48 13 -2 29 1 36 7
9 7 16 7 23 0 6 -6 23 -9 39 -7 36 4 45 28 10 28 -37 0 -41 17 -5 24 25 5 30
10 27 28 -2 19 -10 24 -40 26 -29 3 -39 -1 -48 -18 -7 -12 -10 -31 -7 -41 3
-12 0 -19 -9 -19 -8 0 -14 10 -14 25 0 14 5 25 10 25 15 0 12 19 -4 36 -20 19
-44 18 -49 -3z"/>
<path d="M2528 119 c-2 -6 -25 -11 -52 -11 -38 0 -46 -3 -42 -15 3 -8 6 -32 6
-54 0 -32 4 -39 19 -39 16 0 20 8 23 38 2 29 8 38 25 40 19 3 22 -2 25 -35 l3
-38 54 -2 c30 -1 61 3 68 9 18 14 17 47 -2 54 -12 5 -12 8 2 22 16 16 15 17
-17 20 -19 2 -36 -2 -41 -10 -7 -10 -9 -10 -9 0 0 6 -7 12 -15 12 -8 0 -15 5
-15 10 0 14 -27 13 -32 -1z"/>
<path d="M2247 103 c-13 -12 -7 -46 11 -59 16 -13 16 -13 0 -14 -10 0 -18 -7
-18 -15 0 -22 56 -20 70 3 10 16 10 16 20 0 25 -42 100 -9 100 43 0 33 -18 49
-55 49 -37 0 -55 -16 -55 -47 0 -23 0 -23 -20 -3 -24 24 -25 31 -5 24 9 -4 15
0 15 10 0 11 -9 16 -28 16 -16 0 -32 -3 -35 -7z"/>
</g>
</svg>
