<?xml version="1.0" encoding="utf-8"?>
<!-- Generator: Adobe Illustrator 19.2.1, SVG Export Plug-In . SVG Version: 6.00 Build 0)  -->
<svg version="1.1" id="layer" xmlns="http://www.w3.org/2000/svg" xmlns:xlink="http://www.w3.org/1999/xlink" x="0px" y="0px"
	 viewBox="0 0 652 652" style="enable-background:new 0 0 652 652;" xml:space="preserve">
<style type="text/css">
	.st0{fill:#00387A;}
</style>
<path class="st0" d="M542.8,331.1c0.1-0.1,0.4-0.1,0.5,0c0.1,0.1,0.1,0.2,0.2,0.3c0.1,0.4,0.1,0.7,0.1,1.1c0,6.3-6.1,7.6-11,7.6
	c-11.7,0-20.5-7.7-20.5-19.8c0-11,6.9-18.7,18-18.7c8.8,0,14.9,5.5,14.9,14.3c0,0.9-0.1,1.8-0.2,2.8l-23,3.2
	c0.8,6.8,5.4,11.4,13.1,11.4C537.4,333.2,540.6,332.7,542.8,331.1 M529.1,307.3c-5.4,0-7.2,3.9-7.6,8.9l13.7-2.1
	C535.3,310.4,533.3,307.3,529.1,307.3"/>
<path class="st0" d="M294.8,331.1c0.2-0.1,0.4-0.1,0.6,0c0.1,0.1,0.1,0.2,0.2,0.3c0.1,0.4,0.1,0.7,0.1,1.1c0,6.3-6.1,7.6-11,7.6
	c-11.8,0-20.5-7.7-20.5-19.8c0-11,6.8-18.8,17.9-18.8c8.8,0,15,5.5,15,14.3c0,0.9-0.1,1.8-0.2,2.8l-23,3.2
	c0.8,6.8,5.3,11.4,13.1,11.4C289.5,333.2,292.6,332.7,294.8,331.1 M281.2,307.3c-5.4,0-7.1,3.9-7.5,8.9l13.7-2.1
	C287.4,310.4,285.4,307.3,281.2,307.3"/>
<path class="st0" d="M512.6,332.3c0.1,0.3,0.1,0.9,0.1,1.3c0,4.8-5.1,6.4-9.1,6.4c-7.6,0-12.5-4.5-12.5-12.4v-18.3H487v-6.7h4.2
	v-7.2h10.1v7.2h9.9v6.7h-9.9v18c0,3.8,2.2,6,6.2,6c1.6,0,3.3-0.4,4.5-1.3c0.1-0.1,0.3-0.1,0.4-0.1
	C512.5,332,512.6,332.2,512.6,332.3"/>
<path class="st0" d="M352.7,332.3c0.1,0.3,0.1,0.9,0.1,1.3c0,4.8-5.2,6.4-9.1,6.4c-7.7,0-12.5-4.5-12.5-12.4v-18.3H327v-6.7h4.3
	v-7.2h10.1v7.2h9.9v6.7h-9.9v18c0,3.8,2.2,6,6.1,6c1.6,0,3.4-0.4,4.5-1.3c0.1-0.1,0.3-0.1,0.4-0.1
	C352.6,332,352.6,332.2,352.7,332.3"/>
<path class="st0" d="M545.8,307.5c0.5-3.6,3.5-5.4,6.9-5.4c4,0,6.8,2.4,6.8,6.6v1.4h0.2c3-4.3,5.9-8.5,11.4-8.5
	c0.6,0,1.2,0.1,1.8,0.2l-0.5,9.7c-1-0.3-2.1-0.5-3.2-0.5c-3.6,0-6.4,3-9.1,5.6V339H550v-28.3c0-1.5-0.5-3.2-2.3-3.2
	c-0.5,0-1,0.1-1.4,0.3c-0.1,0.1-0.2,0-0.4,0C545.8,307.7,545.8,307.6,545.8,307.5"/>
<path class="st0" d="M611.7,333.7c0.1-0.1,0.2-0.1,0.3,0.1c0.1,0.1,0.1,0.1,0.1,0.3c-0.3,3-2.8,5.4-6.8,5.4c-4.7,0-7.3-3-7.3-8.1
	v-16.9c0-2.6-1.6-3.9-3.6-3.9c-3.7,0-6.8,3.6-8.9,5.8V339h-10.2v-36.4h10v6.9h0.2c4.1-4.4,8.5-8,14.3-8c2,0,4.1,0.7,5.6,2
	c2.5,2.1,2.8,5.3,2.8,8.4v19c0,1.8,0.5,3.2,2.2,3.2C610.9,334.1,611.3,334,611.7,333.7"/>
<path class="st0" d="M459.8,331.4c2.4,1.4,5.4,2.2,8.5,2.2c3.4,0,6-1.1,6-4c0-2.4-2.4-3.6-5.9-5.3c-4.7-2.4-8.7-4.9-8.7-11.1
	c0-5.6,4.7-11.5,15.4-11.5c2.9,0,5.6,0.3,8,0.7l-1.2,6.9c-1.9-0.6-4.4-1-6.7-1c-3.7,0-5.7,1.5-5.7,3.6c0,2.2,2.7,3.6,6.1,5.3
	c4.5,2.2,8.9,4.8,8.9,11c0,4.9-3.8,11.9-15.1,11.9c-6.5,0-10.3-2.4-10.3-7.2c0-0.4,0-0.7,0.1-1.1c0-0.1,0.1-0.3,0.2-0.3
	C459.5,331.3,459.7,331.3,459.8,331.4"/>
<path class="st0" d="M299.9,331.4c2.4,1.4,5.3,2.2,8.5,2.2c3.3,0,6-1.1,6-4c0-2.4-2.4-3.6-5.8-5.3c-4.8-2.4-8.7-4.9-8.7-11.1
	c0-5.5,4.6-11.5,15.3-11.5c3,0,5.6,0.3,8,0.7l-1.2,6.9c-1.9-0.6-4.4-1-6.8-1c-3.7,0-5.6,1.5-5.6,3.6c0,2.2,2.6,3.6,6,5.3
	c4.6,2.2,8.9,4.8,8.9,11c0,4.9-3.7,11.9-15,11.9c-6.6,0-10.3-2.4-10.3-7.2c0-0.4,0-0.7,0-1.1c0-0.1,0.1-0.3,0.2-0.3
	S299.7,331.3,299.9,331.4"/>
<path class="st0" d="M454.9,331.1c0.1-0.1,0.4-0.1,0.5,0c0.1,0.1,0.1,0.2,0.2,0.3c0.1,0.4,0.1,0.7,0.1,1.1c0,6.3-6.1,7.6-11,7.6
	c-11.7,0-20.5-7.7-20.5-19.8c0-11,6.9-18.7,18-18.7c8.8,0,14.9,5.5,14.9,14.3c0,0.9-0.1,1.8-0.2,2.8l-23,3.2
	c0.8,6.8,5.4,11.4,13.1,11.4C449.5,333.2,452.6,332.7,454.9,331.1 M441.2,307.3c-5.4,0-7.2,3.9-7.6,8.9l13.7-2.1
	C447.3,310.4,445.4,307.3,441.2,307.3"/>
<path class="st0" d="M236.7,339.7c-4.5,0-9.4-0.4-13.9-1.3l-0.3,0v-46.4l0.3,0c6.3-1,11.4-1.5,15.6-1.5h0c5.8,0,9.4,0.6,12.9,2.3
	c2,1,3.6,2.3,4.6,3.9c0.9,1.4,1.3,3,1.4,4.7c0,1-0.2,3-1.6,5.2c-1.2,1.9-3.1,3.5-5.6,4.7c1.7,0.4,3.3,1.1,4.6,1.8
	c2.4,1.3,4.2,3.1,5.2,5.2c1,2,1.3,4.4,1.1,7.1c-0.5,4.9-3.8,9.4-8.8,11.8c-3.1,1.4-6.5,2.3-10.6,2.6
	C240,339.6,238.4,339.7,236.7,339.7 M233.6,332.6c1.1,0.2,2.7,0.4,4.1,0.4c3.8,0,5.7-0.8,7.2-1.6c1.4-0.8,2.6-2.1,3.4-3.7
	c0.8-1.6,1.1-3.3,0.9-5.2c-0.3-3.3-2.5-5.7-6.1-6.7c-1.2-0.3-2.6-0.5-4.1-0.5c-1.7,0-3.6,0.2-5.4,0.7V332.6z M233.6,297v14.6
	c5.2-0.4,7.8-1.5,9.9-2.9c2.2-1.4,3.5-3.5,3.6-5.7c0.1-1.3-0.3-2.5-1.1-3.5c-0.9-1.1-2.4-1.9-4.4-2.4c-1.1-0.3-2.6-0.4-4.2-0.4
	C236.1,296.7,234.8,296.8,233.6,297"/>
<path class="st0" d="M407.6,297.6c0.8-0.4,1.4-0.3,1.9-0.3c2.5,0.4,3.8,4.8,3.5,12.1c-0.1,3.5-0.9,8.9-2.5,13.6
	c-0.8,2.3-1.8,4-2.8,5.3c-1.1,1.4-2.4,2.1-3.7,2.1c-0.1,0-0.1,0-0.2,0c-0.3,0-0.6,0-0.9-0.1l-5.8-39.2h-11.4l4.3,25.9
	c-0.3,1.8-0.9,5.2-2.3,8.2c-1.4,2.9-3,4.5-5,4.8c-0.3,0-0.8,0.1-1.3,0.1c-0.2,0-0.4,0-0.6,0l-5.7-39h-11.4l7.9,47.8l0.2,0.1
	c1.5,0.4,3,0.5,4.5,0.5c1.3,0,2.5-0.1,3.6-0.4c2.8-0.6,5.6-2.3,7.8-4.8c1.7-2.1,3.1-4.5,3.9-7.1l1.9,11.8l0.2,0
	c2.1,0.5,3.5,0.6,5.1,0.6c0.4,0,0.9,0,1.3,0c2.9,0,5.6-0.8,8.1-2.4c2.3-1.4,4.3-3.4,6-6.1c2.4-3.6,4.3-8.1,5.5-13.4
	c1.1-4.6,1.7-9.6,1.7-14.4c0-4-0.6-7.1-1.8-9.4c-1.4-2.5-3.5-3.8-6.3-3.8c-1.5,0-3,0.6-4.1,1.7c-0.9,0.8-2.1,2.4-2.2,5.2
	c0,0.1,0,0.3,0.2,0.3C407.3,297.7,407.5,297.7,407.6,297.6"/>
<polygon class="st0" points="290.3,385 290.3,372.9 278.9,372.9 278.9,385 272.9,385 272.9,358.7 278.9,358.7 278.9,368.8 
	290.3,368.8 290.3,358.7 296.3,358.7 296.3,385 "/>
<path class="st0" d="M310.5,385.7c-6.4,0-9.7-4.8-9.7-10.8c0-6.3,4-10.3,10.3-10.3c6,0,9.5,3.7,9.5,9.8
	C320.6,380.5,317,385.7,310.5,385.7 M310.7,368.1c-3.4,0-4.1,3.5-4.1,6.2c0,2.7,0.6,7.8,4.3,7.8c3.3,0,4.1-4.3,4.1-7.1
	C314.9,372.2,314.2,368.1,310.7,368.1"/>
<path class="st0" d="M501.1,385.7c-6.4,0-9.7-4.8-9.7-10.8c0-6.3,4-10.3,10.3-10.3c6,0,9.5,3.7,9.5,9.8
	C511.2,380.5,507.6,385.7,501.1,385.7 M501.2,368.1c-3.4,0-4.1,3.5-4.1,6.2c0,2.7,0.6,7.8,4.3,7.8c3.3,0,4.1-4.3,4.1-7.1
	C505.5,372.2,504.8,368.1,501.2,368.1"/>
<path class="st0" d="M354.9,380.7c0.1-0.1,0.2-0.1,0.3,0c0,0,0.1,0.1,0.1,0.2c0,0.2,0,0.4,0,0.6c0,3.4-3.3,4.1-6,4.1
	c-6.4,0-11.2-4.2-11.2-10.8c0-6,3.8-10.3,9.8-10.3c4.8,0,8.1,3,8.1,7.8c0,0.5,0,1-0.1,1.5l-12.6,1.8c0.4,3.7,2.9,6.2,7.1,6.2
	C351.9,381.8,353.6,381.6,354.9,380.7 M347.4,367.7c-2.9,0-3.9,2.2-4.1,4.8l7.5-1.1C350.8,369.4,349.7,367.7,347.4,367.7"/>
<path class="st0" d="M471.4,380.7c0.1-0.1,0.2-0.1,0.3,0c0,0,0.1,0.1,0.1,0.2c0,0.2,0,0.4,0,0.6c0,3.4-3.3,4.1-6,4.1
	c-6.4,0-11.2-4.2-11.2-10.8c0-6,3.8-10.3,9.8-10.3c4.8,0,8.1,3,8.1,7.8c0,0.5,0,1-0.1,1.5l-12.6,1.8c0.4,3.7,2.9,6.2,7.1,6.2
	C468.4,381.8,470.1,381.6,471.4,380.7 M463.9,367.7c-2.9,0-3.9,2.2-4.1,4.8l7.5-1.1C467.3,369.4,466.2,367.7,463.9,367.7"/>
<path class="st0" d="M337,381.3c0,0.2,0.1,0.5,0.1,0.7c0,2.6-2.8,3.5-4.9,3.5c-4.2,0-6.8-2.5-6.8-6.8v-10H323v-3.7h2.3v-3.9h5.5v3.9
	h5.4v3.7h-5.4v9.8c0,2.1,1.2,3.3,3.3,3.3c0.9,0,1.8-0.2,2.4-0.7c0.1-0.1,0.2-0.1,0.2,0C337,381.2,337,381.3,337,381.3"/>
<path class="st0" d="M544.4,381.3c0,0.2,0.1,0.5,0.1,0.7c0,2.6-2.8,3.5-4.9,3.5c-4.2,0-6.8-2.5-6.8-6.8v-10h-2.3v-3.7h2.3v-3.9h5.5
	v3.9h5.4v3.7h-5.4v9.8c0,2.1,1.2,3.3,3.3,3.3c0.9,0,1.8-0.2,2.5-0.7c0.1-0.1,0.2-0.1,0.2,0C544.4,381.2,544.4,381.3,544.4,381.3"/>
<path class="st0" d="M513.7,367.8c0.3-2,1.9-3,3.7-3c2.2,0,3.7,1.3,3.7,3.6v0.7h0.1c1.6-2.4,3.2-4.7,6.2-4.7c0.3,0,0.6,0,1,0.1
	l-0.3,5.4c-0.6-0.2-1.1-0.3-1.7-0.3c-2,0-3.5,1.6-5,3V385h-5.5v-15.4c0-0.8-0.3-1.7-1.2-1.7c-0.3,0-0.5,0.1-0.8,0.2
	c-0.1,0-0.1,0-0.2,0C513.7,367.9,513.6,367.8,513.7,367.8"/>
<path class="st0" d="M369.5,380.8c1.3,0.8,2.9,1.2,4.6,1.2c1.8,0,3.3-0.6,3.3-2.2c0-1.3-1.3-2-3.2-2.9c-2.6-1.3-4.8-2.7-4.8-6.1
	c0-3,2.5-6.3,8.4-6.3c1.6,0,3,0.1,4.3,0.4l-0.6,3.8c-1-0.3-2.4-0.6-3.7-0.6c-2,0-3.1,0.8-3.1,1.9c0,1.2,1.4,2,3.3,2.9
	c2.5,1.2,4.9,2.6,4.9,6c0,2.7-2,6.5-8.2,6.5c-3.6,0-5.6-1.3-5.6-3.9c0-0.2,0-0.4,0-0.6c0-0.1,0.1-0.2,0.1-0.2
	C369.4,380.8,369.5,380.8,369.5,380.8"/>
<path class="st0" d="M475.2,380.8c1.3,0.8,2.9,1.2,4.6,1.2c1.8,0,3.3-0.6,3.3-2.2c0-1.3-1.3-2-3.2-2.9c-2.6-1.3-4.8-2.7-4.8-6.1
	c0-3,2.5-6.3,8.4-6.3c1.6,0,3,0.1,4.3,0.4l-0.6,3.8c-1-0.3-2.4-0.6-3.7-0.6c-2,0-3.1,0.8-3.1,1.9c0,1.2,1.5,2,3.3,2.9
	c2.5,1.2,4.9,2.6,4.9,6c0,2.7-2,6.5-8.2,6.5c-3.6,0-5.6-1.3-5.6-3.9c0-0.2,0-0.4,0-0.6c0-0.1,0-0.2,0.1-0.2
	C475,380.8,475.1,380.8,475.2,380.8"/>
<path class="st0" d="M546.1,380.8c1.3,0.8,2.9,1.2,4.6,1.2c1.8,0,3.3-0.6,3.3-2.2c0-1.3-1.3-2-3.2-2.9c-2.6-1.3-4.8-2.7-4.8-6.1
	c0-3,2.5-6.3,8.4-6.3c1.6,0,3.1,0.1,4.3,0.4l-0.6,3.8c-1-0.3-2.4-0.6-3.7-0.6c-2,0-3.1,0.8-3.1,1.9c0,1.2,1.4,2,3.3,2.9
	c2.5,1.2,4.9,2.6,4.9,6c0,2.7-2,6.5-8.2,6.5c-3.6,0-5.6-1.3-5.6-3.9c0-0.2,0-0.4,0-0.6c0-0.1,0.1-0.2,0.1-0.2
	C545.9,380.8,546,380.8,546.1,380.8"/>
<path class="st0" d="M453.9,382c0.1,0,0.2,0,0.2,0c0,0,0.1,0.1,0.1,0.2c-0.2,2.2-2.1,3.1-4.2,3.1c-5.4,0-8.4-5.6-10.3-11.6
	c-0.8,0.1-1.6,0.1-2.4,0.1V385h-6v-26.1c2.9-0.1,5.8-0.3,8.7-0.3c4.8,0,10.5,1.2,10.6,7.1c0,3.5-2.6,5.9-5.5,7.1
	c1.9,3.6,5.5,9.3,8.1,9.3C453.4,382.1,453.6,382,453.9,382 M439.2,362c-0.7,0-1.3,0.1-2,0.2v8.2c0.7,0.1,1.4,0.1,2.1,0.1
	c2.8,0,5.1-1.3,5.1-4.2C444.4,363.2,442.1,362,439.2,362"/>
<path class="st0" d="M410.3,370.5c-0.1,0-0.2,0-0.2,0c0,0-0.1-0.1-0.1-0.1c0-0.2-0.1-0.4-0.1-0.6c0-1.7,1.4-2.7,3-2.7
	c3.2,0,5.1,2.9,5.1,6c0,2.7-1.1,5.2-2.8,7.1c1.8,1.6,3.7,3.2,5.6,4.7h-8c-0.3-0.3-1.5-1.2-1.8-1.4c-2.2,1.3-4.7,2.1-7.4,2.1
	c-4.6,0-9.2-3-9.2-7.9c0-3.1,1.6-5.5,4.3-6.9c-1.1-1.4-2-3.3-2-5c0-5.1,4.8-7.4,9.1-7.4c1.7,0,3.4,0.1,5.1,0.4l-0.6,4.2
	c-1.2-0.4-2.4-0.6-3.7-0.6c-2.3,0-4.1,1.2-4.1,3.6c0,3.1,6.6,8.9,9.9,11.8c0.6-1,0.9-2.1,0.9-3.4c0-2.1-1-4-2.5-4
	C410.7,370.4,410.5,370.5,410.3,370.5 M400.5,373.3c-0.8,0.9-1.2,1.9-1.2,3.1c0,3.1,2.9,5.6,6.1,5.6c1.1,0,2.2-0.3,3.1-0.8
	C405.7,378.8,403,376.2,400.5,373.3"/>
<path class="st0" d="M367,382.1c0.1,0,0.2-0.1,0.2,0c0.1,0,0.1,0.1,0.1,0.2c-0.2,1.6-1.5,2.9-3.7,2.9c-2.6,0-4-1.7-4-4.4v-23.8h5.5
	v23.5c0,1,0.3,1.8,1.2,1.8C366.5,382.3,366.8,382.2,367,382.1"/>
<path class="st0" d="M63.2,318.7c2.5,0.5,5.2,1.4,7.5,2.7c6.8,3.7,9.3,9.6,8.6,16.7c-0.7,6.9-5.4,12.8-12.1,16
	c-4.2,2-9,3.1-14.6,3.6c-8,0.6-17.3,0.1-25.9-1.5v-63.9c7-1.1,14.9-2.1,21.8-2.1c7.5,0,12.7,0.8,17.7,3.1c6,2.8,8.1,7.6,8.1,11.6
	C74.2,308.6,71.8,314.9,63.2,318.7 M47.2,349.4c5.1,0,7.9-1,10.2-2.4c4.2-2.4,6.7-7.5,6.2-12.7c-0.5-5.1-3.9-8.4-8.8-9.8
	c-3.6-1-8.6-1-13.8,0.3v24C42.7,349.2,45.2,349.4,47.2,349.4 M41,319.6c7.7-0.6,11.4-2.1,14.5-4.1c3.5-2.3,5.1-5.4,5.2-8.3
	c0.2-3.5-1.9-7.1-8.1-8.6c-3.3-0.8-7.6-0.7-11.6-0.2V319.6z M140.8,299.2c0.7-0.2,1.7-0.3,2.4-0.2c4.1,0.7,5.6,7.6,5.3,17.3
	c-0.4,11.2-4.8,29.6-12.9,29.7c-0.6,0-1.4,0-2-0.2l-8.1-54.5h-15l5.9,35.7c-1.1,7.2-4.2,17.5-10.6,18.6c-0.6,0.1-2.2,0.2-3,0
	l-8-54.4h-15l10.9,65.8c3.7,0.9,7.7,1,11.1,0.2c8.2-1.8,14.5-9.8,16.5-18.3l3,18.1c3.6,0.8,5.7,0.8,8.8,0.7
	c8.2-0.1,14.8-4.6,19.3-11.5c7-10.6,9.9-25.9,9.9-38.4c0-10.3-3.1-18-10.8-18c-3.9,0-8,3.2-8.4,8.7c0,0.2,0,0.3,0.2,0.4
	C140.5,299.2,140.6,299.2,140.8,299.2"/>
<path class="st0" d="M191.5,267.2c1.9,23.6,2.8,41.8,2.8,57c0,15.3-0.9,33.4-2.8,57c0,0.5-0.4,0.8-0.9,0.8c-0.5,0-0.9-0.4-0.9-0.8
	c-1.9-23.7-2.8-41.8-2.8-57c0-15.2,0.8-33.4,2.8-57c0-0.5,0.4-0.8,0.9-0.8C191,266.4,191.4,266.8,191.5,267.2"/>
<path class="st0" d="M621.8,339.5c-2.7,0-4.7-2.1-4.7-4.9c0-2.8,2-4.9,4.7-4.9c2.7,0,4.7,2.2,4.7,4.9
	C626.5,337.4,624.5,339.5,621.8,339.5 M621.8,330.4c-2.2,0-3.9,1.8-3.9,4.2c0,2.5,1.7,4.3,3.9,4.3c2.2,0,3.9-1.8,3.9-4.3
	C625.7,332.2,624,330.4,621.8,330.4 M621.6,334.9c-0.2,0-0.5,0-0.7,0v2.8h-1v-6.3c0.6,0,1.1-0.1,1.7-0.1c1.1,0,2.4,0.3,2.4,1.6
	c0,0.9-0.6,1.5-1.3,1.7c0.7,1.3,1.3,2.3,1.8,2.3c0.1,0,0.1,0,0.2,0l0.1,0v0.1c0,0.3-0.2,0.6-0.7,0.6
	C622.8,337.7,622.2,336.4,621.6,334.9 M621.3,332c-0.2,0-0.4,0-0.5,0v2.2c0.2,0,0.4,0,0.6,0c0.7,0,1.4-0.3,1.4-1.1
	C622.8,332.3,622.1,332,621.3,332"/>
</svg>
