<svg height='300px' width='300px'  fill="#FF8400" xmlns="http://www.w3.org/2000/svg" xmlns:xlink="http://www.w3.org/1999/xlink" version="1.1" x="0px" y="0px" viewBox="0 0 100 100" enable-background="new 0 0 100 100" xml:space="preserve"><g><polygon fill-rule="evenodd" clip-rule="evenodd" points="21.023,24.385 25.603,26.338 25.159,21.38 28.433,17.628 23.579,16.519    21.023,12.246 18.468,16.519 13.615,17.628 16.888,21.38 16.444,26.338  "></polygon><polygon fill-rule="evenodd" clip-rule="evenodd" points="34.697,16.449 39.281,14.484 43.864,16.448 43.414,11.481 46.697,7.73    41.836,6.624 39.281,2.34 36.728,6.624 31.865,7.73 35.149,11.481  "></polygon><polygon fill-rule="evenodd" clip-rule="evenodd" points="55.462,16.64 60.048,14.668 64.637,16.641 64.177,11.668 67.47,7.917    62.6,6.815 60.048,2.523 57.496,6.815 52.628,7.917 55.92,11.668  "></polygon><polygon fill-rule="evenodd" clip-rule="evenodd" points="73.533,26.872 78.124,24.892 82.714,26.872 82.25,21.894 85.553,18.14    80.674,17.045 78.124,12.744 75.574,17.045 70.696,18.14 73.998,21.894  "></polygon><path fill-rule="evenodd" clip-rule="evenodd" d="M58.288,65.592c0-6.672,4.234-12.359,10.149-14.561h-1.864v-7.498   c0-0.829-0.674-1.503-1.503-1.503h-0.994c-0.829,0-1.503,0.674-1.503,1.503v7.498h-3v-7.498c0-2.482,2.021-4.503,4.503-4.503h0.994   c2.483,0,4.503,2.021,4.503,4.503v7.119c1.357-0.388,2.784-0.608,4.263-0.608c0.588,0,1.166,0.039,1.737,0.104V36.03h4v-3h-4h-5   v-7.999h2.007v-3h-2.007h-42h-2.006v3h2.006v7.999h-4.999h-4.001v3h4.001v56.001h-7.001v3h27V72.043h13.001v22.988h12.19   c-1.142-2.139-2.524-5.031-4.209-8.963C63.085,82.635,58.288,71.012,58.288,65.592z M39.573,84.031h-3v-7.498   c0-0.828-0.674-1.502-1.502-1.502h-0.995c-0.829,0-1.503,0.674-1.503,1.502v7.498h-3v-7.498c0-2.482,2.021-4.502,4.503-4.502h0.995   c2.482,0,4.502,2.02,4.502,4.502V84.031z M39.573,67.031h-3v-7.498c0-0.828-0.674-1.502-1.502-1.502h-0.995   c-0.829,0-1.503,0.674-1.503,1.502v7.498h-3v-7.498c0-2.482,2.021-4.502,4.503-4.502h0.995c2.482,0,4.502,2.02,4.502,4.502V67.031z    M39.573,51.031h-3v-7.498c0-0.829-0.674-1.503-1.502-1.503h-0.995c-0.829,0-1.503,0.674-1.503,1.503v7.498h-3v-7.498   c0-2.482,2.021-4.503,4.503-4.503h0.995c2.482,0,4.502,2.021,4.502,4.503V51.031z M54.573,67.031h-3v-7.498   c0-0.828-0.674-1.502-1.502-1.502h-0.995c-0.828,0-1.503,0.674-1.503,1.502v7.498h-3v-7.498c0-2.482,2.021-4.502,4.503-4.502h0.995   c2.482,0,4.502,2.02,4.502,4.502V67.031z M54.573,51.031h-3v-7.498c0-0.829-0.674-1.503-1.502-1.503h-0.995   c-0.828,0-1.503,0.674-1.503,1.503v7.498h-3v-7.498c0-2.482,2.021-4.503,4.503-4.503h0.995c2.482,0,4.502,2.021,4.502,4.503V51.031   z"></path><path fill-rule="evenodd" clip-rule="evenodd" d="M73.836,53.045c-6.919,0-12.548,5.629-12.548,12.547   c0,6.652,9.345,28.127,12.548,32.068c3.205-3.941,12.549-25.416,12.549-32.068C86.385,58.674,80.756,53.045,73.836,53.045z    M73.837,71.445c-3.225,0-5.854-2.629-5.854-5.854s2.629-5.854,5.854-5.854c3.224,0,5.854,2.629,5.854,5.854   S77.061,71.445,73.837,71.445z"></path></g></svg>