<svg width="654" height="150" xmlns="http://www.w3.org/2000/svg">
 <style type="text/css">.st0{fill:#fff;}</style>

 <g>
  <title>background</title>
  <rect fill="none" id="canvas_background" height="152" width="656" y="-1" x="-1"/>
 </g>
 <g>
  <title>Layer 1</title>
  <path id="svg_1" d="m543.8,74.1c0.1,-0.1 0.4,-0.1 0.5,0c0.1,0.1 0.1,0.2 0.2,0.3c0.1,0.4 0.1,0.7 0.1,1.1c0,6.3 -6.1,7.6 -11,7.6c-11.7,0 -20.5,-7.7 -20.5,-19.8c0,-11 6.9,-18.7 18,-18.7c8.8,0 14.9,5.5 14.9,14.3c0,0.9 -0.1,1.8 -0.2,2.8l-23,3.2c0.8,6.8 5.4,11.4 13.1,11.4c2.5,-0.1 5.7,-0.6 7.9,-2.2m-13.7,-23.8c-5.4,0 -7.2,3.9 -7.6,8.9l13.7,-2.1c0.1,-3.7 -1.9,-6.8 -6.1,-6.8" class="st0"/>
  <path id="svg_2" d="m295.8,74.1c0.2,-0.1 0.4,-0.1 0.6,0c0.1,0.1 0.1,0.2 0.2,0.3c0.1,0.4 0.1,0.7 0.1,1.1c0,6.3 -6.1,7.6 -11,7.6c-11.8,0 -20.5,-7.7 -20.5,-19.8c0,-11 6.8,-18.8 17.9,-18.8c8.8,0 15,5.5 15,14.3c0,0.9 -0.1,1.8 -0.2,2.8l-23,3.2c0.8,6.8 5.3,11.4 13.1,11.4c2.5,0 5.6,-0.5 7.8,-2.1m-13.6,-23.8c-5.4,0 -7.1,3.9 -7.5,8.9l13.7,-2.1c0,-3.7 -2,-6.8 -6.2,-6.8" class="st0"/>
  <path id="svg_3" d="m513.6,75.3c0.1,0.3 0.1,0.9 0.1,1.3c0,4.8 -5.1,6.4 -9.1,6.4c-7.6,0 -12.5,-4.5 -12.5,-12.4l0,-18.3l-4.1,0l0,-6.7l4.2,0l0,-7.2l10.1,0l0,7.2l9.9,0l0,6.7l-9.9,0l0,18c0,3.8 2.2,6 6.2,6c1.6,0 3.3,-0.4 4.5,-1.3c0.1,-0.1 0.3,-0.1 0.4,-0.1c0.1,0.1 0.2,0.3 0.2,0.4" class="st0"/>
  <path id="svg_4" d="m353.7,75.3c0.1,0.3 0.1,0.9 0.1,1.3c0,4.8 -5.2,6.4 -9.1,6.4c-7.7,0 -12.5,-4.5 -12.5,-12.4l0,-18.3l-4.2,0l0,-6.7l4.3,0l0,-7.2l10.1,0l0,7.2l9.9,0l0,6.7l-9.9,0l0,18c0,3.8 2.2,6 6.1,6c1.6,0 3.4,-0.4 4.5,-1.3c0.1,-0.1 0.3,-0.1 0.4,-0.1c0.2,0.1 0.2,0.3 0.3,0.4" class="st0"/>
  <path id="svg_5" d="m546.8,50.5c0.5,-3.6 3.5,-5.4 6.9,-5.4c4,0 6.8,2.4 6.8,6.6l0,1.4l0.2,0c3,-4.3 5.9,-8.5 11.4,-8.5c0.6,0 1.2,0.1 1.8,0.2l-0.5,9.7c-1,-0.3 -2.1,-0.5 -3.2,-0.5c-3.6,0 -6.4,3 -9.1,5.6l0,22.4l-10.1,0l0,-28.3c0,-1.5 -0.5,-3.2 -2.3,-3.2c-0.5,0 -1,0.1 -1.4,0.3c-0.1,0.1 -0.2,0 -0.4,0c-0.1,-0.1 -0.1,-0.2 -0.1,-0.3" class="st0"/>
  <path id="svg_6" d="m612.7,76.7c0.1,-0.1 0.2,-0.1 0.3,0.1c0.1,0.1 0.1,0.1 0.1,0.3c-0.3,3 -2.8,5.4 -6.8,5.4c-4.7,0 -7.3,-3 -7.3,-8.1l0,-16.9c0,-2.6 -1.6,-3.9 -3.6,-3.9c-3.7,0 -6.8,3.6 -8.9,5.8l0,22.6l-10.2,0l0,-36.4l10,0l0,6.9l0.2,0c4.1,-4.4 8.5,-8 14.3,-8c2,0 4.1,0.7 5.6,2c2.5,2.1 2.8,5.3 2.8,8.4l0,19c0,1.8 0.5,3.2 2.2,3.2c0.5,0 0.9,-0.1 1.3,-0.4" class="st0"/>
  <path id="svg_7" d="m460.8,74.4c2.4,1.4 5.4,2.2 8.5,2.2c3.4,0 6,-1.1 6,-4c0,-2.4 -2.4,-3.6 -5.9,-5.3c-4.7,-2.4 -8.7,-4.9 -8.7,-11.1c0,-5.6 4.7,-11.5 15.4,-11.5c2.9,0 5.6,0.3 8,0.7l-1.2,6.9c-1.9,-0.6 -4.4,-1 -6.7,-1c-3.7,0 -5.7,1.5 -5.7,3.6c0,2.2 2.7,3.6 6.1,5.3c4.5,2.2 8.9,4.8 8.9,11c0,4.9 -3.8,11.9 -15.1,11.9c-6.5,0 -10.3,-2.4 -10.3,-7.2c0,-0.4 0,-0.7 0.1,-1.1c0,-0.1 0.1,-0.3 0.2,-0.3c0.1,-0.2 0.3,-0.2 0.4,-0.1" class="st0"/>
  <path id="svg_8" d="m300.9,74.4c2.4,1.4 5.3,2.2 8.5,2.2c3.3,0 6,-1.1 6,-4c0,-2.4 -2.4,-3.6 -5.8,-5.3c-4.8,-2.4 -8.7,-4.9 -8.7,-11.1c0,-5.5 4.6,-11.5 15.3,-11.5c3,0 5.6,0.3 8,0.7l-1.2,6.9c-1.9,-0.6 -4.4,-1 -6.8,-1c-3.7,0 -5.6,1.5 -5.6,3.6c0,2.2 2.6,3.6 6,5.3c4.6,2.2 8.9,4.8 8.9,11c0,4.9 -3.7,11.9 -15,11.9c-6.6,0 -10.3,-2.4 -10.3,-7.2c0,-0.4 0,-0.7 0,-1.1c0,-0.1 0.1,-0.3 0.2,-0.3s0.3,-0.2 0.5,-0.1" class="st0"/>
  <path id="svg_9" d="m455.9,74.1c0.1,-0.1 0.4,-0.1 0.5,0c0.1,0.1 0.1,0.2 0.2,0.3c0.1,0.4 0.1,0.7 0.1,1.1c0,6.3 -6.1,7.6 -11,7.6c-11.7,0 -20.5,-7.7 -20.5,-19.8c0,-11 6.9,-18.7 18,-18.7c8.8,0 14.9,5.5 14.9,14.3c0,0.9 -0.1,1.8 -0.2,2.8l-23,3.2c0.8,6.8 5.4,11.4 13.1,11.4c2.5,-0.1 5.6,-0.6 7.9,-2.2m-13.7,-23.8c-5.4,0 -7.2,3.9 -7.6,8.9l13.7,-2.1c0,-3.7 -1.9,-6.8 -6.1,-6.8" class="st0"/>
  <path id="svg_10" d="m237.7,82.7c-4.5,0 -9.4,-0.4 -13.9,-1.3l-0.3,0l0,-46.4l0.3,0c6.3,-1 11.4,-1.5 15.6,-1.5l0,0c5.8,0 9.4,0.6 12.9,2.3c2,1 3.6,2.3 4.6,3.9c0.9,1.4 1.3,3 1.4,4.7c0,1 -0.2,3 -1.6,5.2c-1.2,1.9 -3.1,3.5 -5.6,4.7c1.7,0.4 3.3,1.1 4.6,1.8c2.4,1.3 4.2,3.1 5.2,5.2c1,2 1.3,4.4 1.1,7.1c-0.5,4.9 -3.8,9.4 -8.8,11.8c-3.1,1.4 -6.5,2.3 -10.6,2.6c-1.6,-0.2 -3.2,-0.1 -4.9,-0.1m-3.1,-7.1c1.1,0.2 2.7,0.4 4.1,0.4c3.8,0 5.7,-0.8 7.2,-1.6c1.4,-0.8 2.6,-2.1 3.4,-3.7c0.8,-1.6 1.1,-3.3 0.9,-5.2c-0.3,-3.3 -2.5,-5.7 -6.1,-6.7c-1.2,-0.3 -2.6,-0.5 -4.1,-0.5c-1.7,0 -3.6,0.2 -5.4,0.7l0,16.6zm0,-35.6l0,14.6c5.2,-0.4 7.8,-1.5 9.9,-2.9c2.2,-1.4 3.5,-3.5 3.6,-5.7c0.1,-1.3 -0.3,-2.5 -1.1,-3.5c-0.9,-1.1 -2.4,-1.9 -4.4,-2.4c-1.1,-0.3 -2.6,-0.4 -4.2,-0.4c-1.3,0 -2.6,0.1 -3.8,0.3" class="st0"/>
  <path id="svg_11" d="m408.6,40.6c0.8,-0.4 1.4,-0.3 1.9,-0.3c2.5,0.4 3.8,4.8 3.5,12.1c-0.1,3.5 -0.9,8.9 -2.5,13.6c-0.8,2.3 -1.8,4 -2.8,5.3c-1.1,1.4 -2.4,2.1 -3.7,2.1c-0.1,0 -0.1,0 -0.2,0c-0.3,0 -0.6,0 -0.9,-0.1l-5.8,-39.2l-11.4,0l4.3,25.9c-0.3,1.8 -0.9,5.2 -2.3,8.2c-1.4,2.9 -3,4.5 -5,4.8c-0.3,0 -0.8,0.1 -1.3,0.1c-0.2,0 -0.4,0 -0.6,0l-5.7,-39l-11.4,0l7.9,47.8l0.2,0.1c1.5,0.4 3,0.5 4.5,0.5c1.3,0 2.5,-0.1 3.6,-0.4c2.8,-0.6 5.6,-2.3 7.8,-4.8c1.7,-2.1 3.1,-4.5 3.9,-7.1l1.9,11.8l0.2,0c2.1,0.5 3.5,0.6 5.1,0.6c0.4,0 0.9,0 1.3,0c2.9,0 5.6,-0.8 8.1,-2.4c2.3,-1.4 4.3,-3.4 6,-6.1c2.4,-3.6 4.3,-8.1 5.5,-13.4c1.1,-4.6 1.7,-9.6 1.7,-14.4c0,-4 -0.6,-7.1 -1.8,-9.4c-1.4,-2.5 -3.5,-3.8 -6.3,-3.8c-1.5,0 -3,0.6 -4.1,1.7c-0.9,0.8 -2.1,2.4 -2.2,5.2c0,0.1 0,0.3 0.2,0.3c0.1,0.4 0.3,0.4 0.4,0.3" class="st0"/>
  <polygon id="svg_12" points="291.29998779296875,128 291.29998779296875,115.89999389648438 279.8999938964844,115.89999389648438 279.8999938964844,128 273.8999938964844,128 273.8999938964844,101.70001220703125 279.8999938964844,101.70001220703125 279.8999938964844,111.79998779296875 291.29998779296875,111.79998779296875 291.29998779296875,101.70001220703125 297.29998779296875,101.70001220703125 297.29998779296875,128 " class="st0"/>
  <path id="svg_13" d="m311.5,128.7c-6.4,0 -9.7,-4.8 -9.7,-10.8c0,-6.3 4,-10.3 10.3,-10.3c6,0 9.5,3.7 9.5,9.8c0,6.1 -3.6,11.3 -10.1,11.3m0.2,-17.6c-3.4,0 -4.1,3.5 -4.1,6.2c0,2.7 0.6,7.8 4.3,7.8c3.3,0 4.1,-4.3 4.1,-7.1c-0.1,-2.8 -0.8,-6.9 -4.3,-6.9" class="st0"/>
  <path id="svg_14" d="m502.1,128.7c-6.4,0 -9.7,-4.8 -9.7,-10.8c0,-6.3 4,-10.3 10.3,-10.3c6,0 9.5,3.7 9.5,9.8c0,6.1 -3.6,11.3 -10.1,11.3m0.1,-17.6c-3.4,0 -4.1,3.5 -4.1,6.2c0,2.7 0.6,7.8 4.3,7.8c3.3,0 4.1,-4.3 4.1,-7.1c0,-2.8 -0.7,-6.9 -4.3,-6.9" class="st0"/>
  <path id="svg_15" d="m355.9,123.7c0.1,-0.1 0.2,-0.1 0.3,0c0,0 0.1,0.1 0.1,0.2c0,0.2 0,0.4 0,0.6c0,3.4 -3.3,4.1 -6,4.1c-6.4,0 -11.2,-4.2 -11.2,-10.8c0,-6 3.8,-10.3 9.8,-10.3c4.8,0 8.1,3 8.1,7.8c0,0.5 0,1 -0.1,1.5l-12.6,1.8c0.4,3.7 2.9,6.2 7.1,6.2c1.5,0 3.2,-0.2 4.5,-1.1m-7.5,-13c-2.9,0 -3.9,2.2 -4.1,4.8l7.5,-1.1c0,-2 -1.1,-3.7 -3.4,-3.7" class="st0"/>
  <path id="svg_16" d="m472.4,123.7c0.1,-0.1 0.2,-0.1 0.3,0c0,0 0.1,0.1 0.1,0.2c0,0.2 0,0.4 0,0.6c0,3.4 -3.3,4.1 -6,4.1c-6.4,0 -11.2,-4.2 -11.2,-10.8c0,-6 3.8,-10.3 9.8,-10.3c4.8,0 8.1,3 8.1,7.8c0,0.5 0,1 -0.1,1.5l-12.6,1.8c0.4,3.7 2.9,6.2 7.1,6.2c1.5,0 3.2,-0.2 4.5,-1.1m-7.5,-13c-2.9,0 -3.9,2.2 -4.1,4.8l7.5,-1.1c0,-2 -1.1,-3.7 -3.4,-3.7" class="st0"/>
  <path id="svg_17" d="m338,124.3c0,0.2 0.1,0.5 0.1,0.7c0,2.6 -2.8,3.5 -4.9,3.5c-4.2,0 -6.8,-2.5 -6.8,-6.8l0,-10l-2.4,0l0,-3.7l2.3,0l0,-3.9l5.5,0l0,3.9l5.4,0l0,3.7l-5.4,0l0,9.8c0,2.1 1.2,3.3 3.3,3.3c0.9,0 1.8,-0.2 2.4,-0.7c0.1,-0.1 0.2,-0.1 0.2,0c0.3,0.1 0.3,0.2 0.3,0.2" class="st0"/>
  <path id="svg_18" d="m545.4,124.3c0,0.2 0.1,0.5 0.1,0.7c0,2.6 -2.8,3.5 -4.9,3.5c-4.2,0 -6.8,-2.5 -6.8,-6.8l0,-10l-2.3,0l0,-3.7l2.3,0l0,-3.9l5.5,0l0,3.9l5.4,0l0,3.7l-5.4,0l0,9.8c0,2.1 1.2,3.3 3.3,3.3c0.9,0 1.8,-0.2 2.5,-0.7c0.1,-0.1 0.2,-0.1 0.2,0c0.1,0.1 0.1,0.2 0.1,0.2" class="st0"/>
  <path id="svg_19" d="m514.7,110.8c0.3,-2 1.9,-3 3.7,-3c2.2,0 3.7,1.3 3.7,3.6l0,0.7l0.1,0c1.6,-2.4 3.2,-4.7 6.2,-4.7c0.3,0 0.6,0 1,0.1l-0.3,5.4c-0.6,-0.2 -1.1,-0.3 -1.7,-0.3c-2,0 -3.5,1.6 -5,3l0,12.4l-5.5,0l0,-15.4c0,-0.8 -0.3,-1.7 -1.2,-1.7c-0.3,0 -0.5,0.1 -0.8,0.2c-0.1,0 -0.1,0 -0.2,0c0,-0.2 -0.1,-0.3 0,-0.3" class="st0"/>
  <path id="svg_20" d="m370.5,123.8c1.3,0.8 2.9,1.2 4.6,1.2c1.8,0 3.3,-0.6 3.3,-2.2c0,-1.3 -1.3,-2 -3.2,-2.9c-2.6,-1.3 -4.8,-2.7 -4.8,-6.1c0,-3 2.5,-6.3 8.4,-6.3c1.6,0 3,0.1 4.3,0.4l-0.6,3.8c-1,-0.3 -2.4,-0.6 -3.7,-0.6c-2,0 -3.1,0.8 -3.1,1.9c0,1.2 1.4,2 3.3,2.9c2.5,1.2 4.9,2.6 4.9,6c0,2.7 -2,6.5 -8.2,6.5c-3.6,0 -5.6,-1.3 -5.6,-3.9c0,-0.2 0,-0.4 0,-0.6c0,-0.1 0.1,-0.2 0.1,-0.2c0.2,0.1 0.3,0.1 0.3,0.1" class="st0"/>
  <path id="svg_21" d="m476.2,123.8c1.3,0.8 2.9,1.2 4.6,1.2c1.8,0 3.3,-0.6 3.3,-2.2c0,-1.3 -1.3,-2 -3.2,-2.9c-2.6,-1.3 -4.8,-2.7 -4.8,-6.1c0,-3 2.5,-6.3 8.4,-6.3c1.6,0 3,0.1 4.3,0.4l-0.6,3.8c-1,-0.3 -2.4,-0.6 -3.7,-0.6c-2,0 -3.1,0.8 -3.1,1.9c0,1.2 1.5,2 3.3,2.9c2.5,1.2 4.9,2.6 4.9,6c0,2.7 -2,6.5 -8.2,6.5c-3.6,0 -5.6,-1.3 -5.6,-3.9c0,-0.2 0,-0.4 0,-0.6c0,-0.1 0,-0.2 0.1,-0.2c0.1,0.1 0.2,0.1 0.3,0.1" class="st0"/>
  <path id="svg_22" d="m547.1,123.8c1.3,0.8 2.9,1.2 4.6,1.2c1.8,0 3.3,-0.6 3.3,-2.2c0,-1.3 -1.3,-2 -3.2,-2.9c-2.6,-1.3 -4.8,-2.7 -4.8,-6.1c0,-3 2.5,-6.3 8.4,-6.3c1.6,0 3.1,0.1 4.3,0.4l-0.6,3.8c-1,-0.3 -2.4,-0.6 -3.7,-0.6c-2,0 -3.1,0.8 -3.1,1.9c0,1.2 1.4,2 3.3,2.9c2.5,1.2 4.9,2.6 4.9,6c0,2.7 -2,6.5 -8.2,6.5c-3.6,0 -5.6,-1.3 -5.6,-3.9c0,-0.2 0,-0.4 0,-0.6c0,-0.1 0.1,-0.2 0.1,-0.2c0.1,0.1 0.2,0.1 0.3,0.1" class="st0"/>
  <path id="svg_23" d="m454.9,125c0.1,0 0.2,0 0.2,0c0,0 0.1,0.1 0.1,0.2c-0.2,2.2 -2.1,3.1 -4.2,3.1c-5.4,0 -8.4,-5.6 -10.3,-11.6c-0.8,0.1 -1.6,0.1 -2.4,0.1l0,11.2l-6,0l0,-26.1c2.9,-0.1 5.8,-0.3 8.7,-0.3c4.8,0 10.5,1.2 10.6,7.1c0,3.5 -2.6,5.9 -5.5,7.1c1.9,3.6 5.5,9.3 8.1,9.3c0.2,0 0.4,-0.1 0.7,-0.1m-14.7,-20c-0.7,0 -1.3,0.1 -2,0.2l0,8.2c0.7,0.1 1.4,0.1 2.1,0.1c2.8,0 5.1,-1.3 5.1,-4.2c0,-3.1 -2.3,-4.3 -5.2,-4.3" class="st0"/>
  <path id="svg_24" d="m411.3,113.5c-0.1,0 -0.2,0 -0.2,0c0,0 -0.1,-0.1 -0.1,-0.1c0,-0.2 -0.1,-0.4 -0.1,-0.6c0,-1.7 1.4,-2.7 3,-2.7c3.2,0 5.1,2.9 5.1,6c0,2.7 -1.1,5.2 -2.8,7.1c1.8,1.6 3.7,3.2 5.6,4.7l-8,0c-0.3,-0.3 -1.5,-1.2 -1.8,-1.4c-2.2,1.3 -4.7,2.1 -7.4,2.1c-4.6,0 -9.2,-3 -9.2,-7.9c0,-3.1 1.6,-5.5 4.3,-6.9c-1.1,-1.4 -2,-3.3 -2,-5c0,-5.1 4.8,-7.4 9.1,-7.4c1.7,0 3.4,0.1 5.1,0.4l-0.6,4.2c-1.2,-0.4 -2.4,-0.6 -3.7,-0.6c-2.3,0 -4.1,1.2 -4.1,3.6c0,3.1 6.6,8.9 9.9,11.8c0.6,-1 0.9,-2.1 0.9,-3.4c0,-2.1 -1,-4 -2.5,-4c-0.1,0 -0.3,0.1 -0.5,0.1m-9.8,2.8c-0.8,0.9 -1.2,1.9 -1.2,3.1c0,3.1 2.9,5.6 6.1,5.6c1.1,0 2.2,-0.3 3.1,-0.8c-2.8,-2.4 -5.5,-5 -8,-7.9" class="st0"/>
  <path id="svg_25" d="m368,125.1c0.1,0 0.2,-0.1 0.2,0c0.1,0 0.1,0.1 0.1,0.2c-0.2,1.6 -1.5,2.9 -3.7,2.9c-2.6,0 -4,-1.7 -4,-4.4l0,-23.8l5.5,0l0,23.5c0,1 0.3,1.8 1.2,1.8c0.2,0 0.5,-0.1 0.7,-0.2" class="st0"/>
  <path id="svg_26" d="m64.2,61.7c2.5,0.5 5.2,1.4 7.5,2.7c6.8,3.7 9.3,9.6 8.6,16.7c-0.7,6.9 -5.4,12.8 -12.1,16c-4.2,2 -9,3.1 -14.6,3.6c-8,0.6 -17.3,0.1 -25.9,-1.5l0,-63.9c7,-1.1 14.9,-2.1 21.8,-2.1c7.5,0 12.7,0.8 17.7,3.1c6,2.8 8.1,7.6 8.1,11.6c-0.1,3.7 -2.5,10 -11.1,13.8m-16,30.7c5.1,0 7.9,-1 10.2,-2.4c4.2,-2.4 6.7,-7.5 6.2,-12.7c-0.5,-5.1 -3.9,-8.4 -8.8,-9.8c-3.6,-1 -8.6,-1 -13.8,0.3l0,24c1.7,0.4 4.2,0.6 6.2,0.6m-6.2,-29.8c7.7,-0.6 11.4,-2.1 14.5,-4.1c3.5,-2.3 5.1,-5.4 5.2,-8.3c0.2,-3.5 -1.9,-7.1 -8.1,-8.6c-3.3,-0.8 -7.6,-0.7 -11.6,-0.2l0,21.2zm99.8,-20.4c0.7,-0.2 1.7,-0.3 2.4,-0.2c4.1,0.7 5.6,7.6 5.3,17.3c-0.4,11.2 -4.8,29.6 -12.9,29.7c-0.6,0 -1.4,0 -2,-0.2l-8.1,-54.5l-15,0l5.9,35.7c-1.1,7.2 -4.2,17.5 -10.6,18.6c-0.6,0.1 -2.2,0.2 -3,0l-8,-54.4l-15,0l10.9,65.8c3.7,0.9 7.7,1 11.1,0.2c8.2,-1.8 14.5,-9.8 16.5,-18.3l3,18.1c3.6,0.8 5.7,0.8 8.8,0.7c8.2,-0.1 14.8,-4.6 19.3,-11.5c7,-10.6 9.9,-25.9 9.9,-38.4c0,-10.3 -3.1,-18 -10.8,-18c-3.9,0 -8,3.2 -8.4,8.7c0,0.2 0,0.3 0.2,0.4c0.2,0.3 0.3,0.3 0.5,0.3" class="st0"/>
  <path id="svg_27" d="m192.5,10.2c1.9,23.6 2.8,41.8 2.8,57c0,15.3 -0.9,33.4 -2.8,57c0,0.5 -0.4,0.8 -0.9,0.8c-0.5,0 -0.9,-0.4 -0.9,-0.8c-1.9,-23.7 -2.8,-41.8 -2.8,-57c0,-15.2 0.8,-33.4 2.8,-57c0,-0.5 0.4,-0.8 0.9,-0.8c0.4,0 0.8,0.4 0.9,0.8" class="st0"/>
  <path id="svg_28" d="m622.8,82.5c-2.7,0 -4.7,-2.1 -4.7,-4.9c0,-2.8 2,-4.9 4.7,-4.9c2.7,0 4.7,2.2 4.7,4.9c0,2.8 -2,4.9 -4.7,4.9m0,-9.1c-2.2,0 -3.9,1.8 -3.9,4.2c0,2.5 1.7,4.3 3.9,4.3c2.2,0 3.9,-1.8 3.9,-4.3c0,-2.4 -1.7,-4.2 -3.9,-4.2m-0.2,4.5c-0.2,0 -0.5,0 -0.7,0l0,2.8l-1,0l0,-6.3c0.6,0 1.1,-0.1 1.7,-0.1c1.1,0 2.4,0.3 2.4,1.6c0,0.9 -0.6,1.5 -1.3,1.7c0.7,1.3 1.3,2.3 1.8,2.3c0.1,0 0.1,0 0.2,0l0.1,0l0,0.1c0,0.3 -0.2,0.6 -0.7,0.6c-1.3,0.1 -1.9,-1.2 -2.5,-2.7m-0.3,-2.9c-0.2,0 -0.4,0 -0.5,0l0,2.2c0.2,0 0.4,0 0.6,0c0.7,0 1.4,-0.3 1.4,-1.1c0,-0.8 -0.7,-1.1 -1.5,-1.1" class="st0"/>
 </g>
</svg>